<svg xmlns="http://www.w3.org/2000/svg" viewBox="0 0 1000 138" font-family="sans-serif"><rect x="0" y="0" width="1000" height="138" fill="white"/><line x1="200.8" y1="72.0" x2="226.8" y2="72.0" stroke="#b7c3cc" stroke-width="1.6"/><line x1="391.6" y1="72.0" x2="417.6" y2="72.0" stroke="#b7c3cc" stroke-width="1.6"/><line x1="582.4" y1="72.0" x2="608.4" y2="72.0" stroke="#b7c3cc" stroke-width="1.6"/><line x1="773.2" y1="72.0" x2="799.2" y2="72.0" stroke="#b7c3cc" stroke-width="1.6"/><rect x="36.0" y="34.0" width="164.8" height="76.0" rx="10" fill="#dfebf0"/><text x="118.4" y="78.7" text-anchor="middle" font-size="19" font-weight="500" fill="#6ba3b8">Setup</text><rect x="226.8" y="34.0" width="164.8" height="76.0" rx="10" fill="#dfebf0"/><text x="309.2" y="66.7" text-anchor="middle" font-size="19" font-weight="500" fill="#6ba3b8">Compute NDVI</text><text x="309.2" y="90.7" text-anchor="middle" font-size="19" font-weight="500" fill="#6ba3b8">&amp; NDBI</text><rect x="417.6" y="34.0" width="164.8" height="76.0" rx="10" fill="#dfebf0"/><text x="500.0" y="78.7" text-anchor="middle" font-size="19" font-weight="500" fill="#6ba3b8">Detect Change</text><rect x="608.4" y="34.0" width="164.8" height="76.0" rx="10" fill="#dfebf0"/><text x="690.8" y="78.7" text-anchor="middle" font-size="19" font-weight="500" fill="#6ba3b8">Change Map</text><defs><clipPath id="clip-2185171"><rect x="799.2" y="34.0" width="164.8" height="76.0" rx="10"/></clipPath></defs><g clip-path="url(#clip-2185171)"><rect x="799.2" y="34.0" width="164.8" height="76.0" fill="#1B7192"/></g><text x="881.6" y="78.7" text-anchor="middle" font-size="19" font-weight="700" fill="#ffffff">Export</text></svg>