<svg xmlns="http://www.w3.org/2000/svg" viewBox="0 0 1000 291" font-family="sans-serif"><rect x="0" y="0" width="1000" height="291" fill="white"/><line x1="200.8" y1="72.0" x2="226.8" y2="72.0" stroke="#b7c3cc" stroke-width="1.6"/><line x1="391.6" y1="72.0" x2="417.6" y2="72.0" stroke="#b7c3cc" stroke-width="1.6"/><line x1="582.4" y1="72.0" x2="608.4" y2="72.0" stroke="#b7c3cc" stroke-width="1.6"/><line x1="773.2" y1="72.0" x2="799.2" y2="72.0" stroke="#b7c3cc" stroke-width="1.6"/><rect x="36.0" y="34.0" width="164.8" height="76.0" rx="10" fill="#dfebf0"/><text x="118.4" y="78.7" text-anchor="middle" font-size="19" font-weight="500" fill="#6ba3b8">Setup</text><rect x="226.8" y="34.0" width="164.8" height="76.0" rx="10" fill="#dfebf0"/><text x="309.2" y="66.7" text-anchor="middle" font-size="19" font-weight="500" fill="#6ba3b8">Area of</text><text x="309.2" y="90.7" text-anchor="middle" font-size="19" font-weight="500" fill="#6ba3b8">Interest</text><rect x="417.6" y="34.0" width="164.8" height="76.0" rx="10" fill="#dfebf0"/><text x="500.0" y="66.7" text-anchor="middle" font-size="19" font-weight="500" fill="#6ba3b8">Download &amp;</text><text x="500.0" y="90.7" text-anchor="middle" font-size="19" font-weight="500" fill="#6ba3b8">Check</text><rect x="608.4" y="34.0" width="164.8" height="76.0" rx="10" fill="#dfebf0"/><text x="690.8" y="66.7" text-anchor="middle" font-size="19" font-weight="500" fill="#6ba3b8">Classify</text><text x="690.8" y="90.7" text-anchor="middle" font-size="19" font-weight="500" fill="#6ba3b8">Flood Risk</text><defs><clipPath id="clip-2185171"><rect x="799.2" y="34.0" width="164.8" height="229.0" rx="10"/></clipPath></defs><g clip-path="url(#clip-2185171)"><rect x="799.2" y="34.0" width="164.8" height="76.0" fill="#1B7192"/><rect x="799.2" y="110.0" width="164.8" height="153.0" fill="#6ba3b8"/></g><text x="881.6" y="78.7" text-anchor="middle" font-size="19" font-weight="700" fill="#ffffff">Export</text><circle cx="820.2" cy="131.2" r="2.4" fill="#ffffff"/><text x="832.2" y="136.0" font-size="15" fill="#ffffff">Save rasters</text><circle cx="820.2" cy="156.2" r="2.4" fill="#ffffff"/><text x="832.2" y="161.0" font-size="15" fill="#ffffff">Flood-risk</text><text x="832.2" y="186.0" font-size="15" fill="#ffffff">map</text><circle cx="820.2" cy="206.2" r="2.4" fill="#ffffff"/><text x="832.2" y="211.0" font-size="15" fill="#ffffff">GeoJSON +</text><text x="832.2" y="236.0" font-size="15" fill="#ffffff">webmap</text></svg>