<svg xmlns="http://www.w3.org/2000/svg" viewBox="0 0 1000 291" font-family="sans-serif"><rect x="0" y="0" width="1000" height="291" fill="white"/><line x1="169.0" y1="72.0" x2="195.0" y2="72.0" stroke="#b7c3cc" stroke-width="1.6"/><line x1="328.0" y1="72.0" x2="354.0" y2="72.0" stroke="#b7c3cc" stroke-width="1.6"/><line x1="487.0" y1="72.0" x2="513.0" y2="72.0" stroke="#b7c3cc" stroke-width="1.6"/><line x1="646.0" y1="72.0" x2="672.0" y2="72.0" stroke="#b7c3cc" stroke-width="1.6"/><line x1="805.0" y1="72.0" x2="831.0" y2="72.0" stroke="#b7c3cc" stroke-width="1.6"/><rect x="36.0" y="34.0" width="133.0" height="76.0" rx="10" fill="#dfebf0"/><text x="102.5" y="78.7" text-anchor="middle" font-size="19" font-weight="500" fill="#6ba3b8">Setup</text><rect x="195.0" y="34.0" width="133.0" height="76.0" rx="10" fill="#dfebf0"/><text x="261.5" y="66.7" text-anchor="middle" font-size="19" font-weight="500" fill="#6ba3b8">Network &amp;</text><text x="261.5" y="90.7" text-anchor="middle" font-size="19" font-weight="500" fill="#6ba3b8">H3 Grid</text><rect x="354.0" y="34.0" width="133.0" height="76.0" rx="10" fill="#dfebf0"/><text x="420.5" y="66.7" text-anchor="middle" font-size="19" font-weight="500" fill="#6ba3b8">Isochrones</text><text x="420.5" y="90.7" text-anchor="middle" font-size="19" font-weight="500" fill="#6ba3b8">&amp; Capture</text><rect x="513.0" y="34.0" width="133.0" height="76.0" rx="10" fill="#dfebf0"/><text x="579.5" y="66.7" text-anchor="middle" font-size="19" font-weight="500" fill="#6ba3b8">Accessibility</text><text x="579.5" y="90.7" text-anchor="middle" font-size="19" font-weight="500" fill="#6ba3b8">Summary</text><rect x="672.0" y="34.0" width="133.0" height="76.0" rx="10" fill="#dfebf0"/><text x="738.5" y="66.7" text-anchor="middle" font-size="19" font-weight="500" fill="#6ba3b8">Maps &amp;</text><text x="738.5" y="90.7" text-anchor="middle" font-size="19" font-weight="500" fill="#6ba3b8">Chart</text><defs><clipPath id="clip-3102966"><rect x="831.0" y="34.0" width="133.0" height="229.0" rx="10"/></clipPath></defs><g clip-path="url(#clip-3102966)"><rect x="831.0" y="34.0" width="133.0" height="76.0" fill="#1B7192"/><rect x="831.0" y="110.0" width="133.0" height="153.0" fill="#6ba3b8"/></g><text x="897.5" y="66.7" text-anchor="middle" font-size="19" font-weight="700" fill="#ffffff">What-if &amp;</text><text x="897.5" y="90.7" text-anchor="middle" font-size="19" font-weight="700" fill="#ffffff">Export</text><circle cx="852.0" cy="131.2" r="2.4" fill="#ffffff"/><text x="864.0" y="136.0" font-size="15" fill="#ffffff">Pick</text><text x="864.0" y="161.0" font-size="15" fill="#ffffff">candidate</text><text x="864.0" y="186.0" font-size="15" fill="#ffffff">site</text><circle cx="852.0" cy="206.2" r="2.4" fill="#ffffff"/><text x="864.0" y="211.0" font-size="15" fill="#ffffff">Evaluate</text><circle cx="852.0" cy="231.2" r="2.4" fill="#ffffff"/><text x="864.0" y="236.0" font-size="15" fill="#ffffff">Export</text></svg>